<svg xmlns="http://www.w3.org/2000/svg" width="20px" height="20px" fill="none" viewBox="0 0 20 20" color="#F5F3F7"><path fill="#F5F3F7" fillRule="evenodd" d="M13.68 4.56v.32a1.28 1.28 0 01-1.28 1.28H7.6a1.28 1.28 0 01-1.28-1.28v-.32H5.2a1.12 1.12 0 00-1.12 1.12v7.742a.48.48 0 11-.96 0V5.68A2.08 2.08 0 015.2 3.6h1.12v-.32C6.32 2.573 6.893 2 7.6 2h4.8c.707 0 1.28.573 1.28 1.28v.32h1.12a2.08 2.08 0 012.08 2.08v10.24A2.08 2.08 0 0114.8 18H7.76a.48.48 0 110-.96h7.04a1.12 1.12 0 001.12-1.12V5.68a1.12 1.12 0 00-1.12-1.12h-1.12zm-6.4-1.28a.32.32 0 01.32-.32h4.8a.32.32 0 01.32.32v1.6a.32.32 0 01-.32.32H7.6a.32.32 0 01-.32-.32v-1.6z" clipRule="evenodd"></path><path fill="#F5F3F7" d="M9.027 12.072a.48.48 0 010 .679l-5.03 5.03a.48.48 0 11-.68-.68l5.03-5.03a.48.48 0 01.68 0zM10.336 12.954a.336.336 0 00-.672 0v1.238a.336.336 0 10.672 0v-1.238zM8.48 11.098c0 .186-.15.336-.336.336H6.906a.336.336 0 110-.672h1.238c.186 0 .336.15.336.336zM11.55 12.174a.336.336 0 00-.475.475l.876.875a.336.336 0 00.475-.475l-.876-.875zM7.574 8.673a.336.336 0 01.475 0l.876.875a.336.336 0 01-.475.475l-.876-.875a.336.336 0 010-.475zM13.094 11.434a.336.336 0 100-.672h-1.239a.336.336 0 000 .672h1.239zM10 7.668c.185 0 .336.15.336.336v1.239a.336.336 0 01-.672 0V8.004c0-.185.15-.336.336-.336zM12.426 9.148a.336.336 0 00-.476-.475l-.875.875a.336.336 0 00.475.475l.876-.875z"></path></svg>
 