<svg width="20px" height="20px" viewBox="0 0 20 20" xmlns="http://www.w3.org/2000/svg" color="#F5F3F7" fill="#F5F3F7"><g clipPath="url(#clip0_522_996)"><path d="M17.5964 5.18111C15.2167 3.03885 12.4717 4.3375 11.4035 4.99497C11.0458 5.21913 10.6533 5.3822 10.2421 5.47753C10.164 5.49762 10.0842 5.51023 10.0037 5.51518C9.92306 5.51024 9.84312 5.49763 9.76492 5.47753C9.35367 5.38217 8.96117 5.219 8.60352 4.99471C7.53346 4.3375 4.78902 3.03885 2.40989 5.18111C0.757397 6.66856 0.220097 9.60956 0.0598687 11.8151C0.0488441 11.9962 0.109656 12.1744 0.229119 12.311C0.348582 12.4475 0.517065 12.5315 0.698037 12.5447C0.879009 12.5579 1.05788 12.4992 1.19587 12.3814C1.33386 12.2635 1.41984 12.0961 1.43516 11.9152C1.63492 9.15424 2.30894 7.12708 3.33227 6.20603C4.95939 4.74128 6.8808 5.55444 7.88089 6.16945C8.36895 6.47409 8.90444 6.69513 9.46529 6.82345C9.64151 6.8662 9.82183 6.88984 10.0031 6.89395C10.1843 6.88984 10.3646 6.8662 10.5407 6.82345C11.1014 6.69512 11.6367 6.47408 12.1245 6.16945C13.1249 5.55524 15.0466 4.74155 16.6732 6.20603C18.6958 8.0265 18.7527 13.3562 18.5444 15.0918C18.5129 15.3685 18.405 15.631 18.233 15.8499C18.0346 16.0991 17.7956 16.231 17.481 16.2647C16.819 16.3349 15.5382 16.0168 13.1874 14.097C12.3178 13.3859 11.239 12.9796 10.1163 12.9404C10.0346 12.9378 9.96734 12.9378 9.88749 12.9404C8.76484 12.9796 7.68602 13.3859 6.81644 14.097C4.46509 16.0171 3.18459 16.3349 2.52285 16.2647C2.208 16.231 1.96899 16.0991 1.77058 15.8499C1.68445 15.7415 1.61422 15.6214 1.56201 15.4932C1.5187 15.3859 1.48744 15.2743 1.46881 15.1601C1.43953 14.9795 1.33969 14.818 1.19128 14.711C1.04286 14.604 0.858021 14.5603 0.677417 14.5896C0.496812 14.6189 0.335238 14.7187 0.228239 14.8671C0.121241 15.0155 0.0775828 15.2004 0.106869 15.381C0.142165 15.5976 0.201643 15.8095 0.284189 16.0128C0.387069 16.2632 0.525389 16.4975 0.694908 16.7085C1.12592 17.2501 1.69233 17.563 2.37891 17.6357C2.48455 17.647 2.59072 17.6526 2.69696 17.6525C4.00737 17.6525 5.64624 16.8353 7.69076 15.165C8.32572 14.6449 9.11374 14.3475 9.93396 14.3184C9.98416 14.3171 10.0242 14.3168 10.0763 14.3184C10.8958 14.3478 11.683 14.6451 12.3174 15.1647C14.5317 16.9731 16.2721 17.7818 17.63 17.6354C18.3163 17.5617 18.8827 17.2498 19.3124 16.7082C19.644 16.2894 19.8525 15.7864 19.9143 15.2557C20.0967 13.7328 20.2385 7.55943 17.5964 5.18111Z"></path><path d="M5.47152 7.66602C5.38101 7.66602 5.29138 7.68384 5.20776 7.71848C5.12414 7.75312 5.04815 7.80389 4.98415 7.86789C4.92015 7.9319 4.86938 8.00788 4.83474 8.0915C4.8001 8.17513 4.78227 8.26475 4.78227 8.35527V9.35242H3.78512C3.69344 9.35062 3.60233 9.36712 3.51711 9.40095C3.43189 9.43478 3.35428 9.48528 3.28881 9.54947C3.22334 9.61366 3.17133 9.69027 3.13582 9.77481C3.10032 9.85934 3.08203 9.95011 3.08203 10.0418C3.08203 10.1335 3.10032 10.2243 3.13582 10.3088C3.17133 10.3933 3.22334 10.4699 3.28881 10.5341C3.35428 10.5983 3.43189 10.6488 3.51711 10.6827C3.60233 10.7165 3.69344 10.733 3.78512 10.7312H4.78227V11.7283C4.78047 11.82 4.79697 11.9111 4.8308 11.9963C4.86464 12.0816 4.91513 12.1592 4.97932 12.2247C5.04351 12.2901 5.12012 12.3421 5.20466 12.3776C5.2892 12.4131 5.37997 12.4314 5.47166 12.4314C5.56335 12.4314 5.65412 12.4131 5.73865 12.3776C5.82319 12.3421 5.8998 12.2901 5.96399 12.2247C6.02819 12.1592 6.07868 12.0816 6.11251 11.9963C6.14635 11.9111 6.16284 11.82 6.16104 11.7283V10.7312H7.1582C7.33868 10.7276 7.51058 10.6534 7.63696 10.5245C7.76335 10.3956 7.83415 10.2223 7.83415 10.0418C7.83415 9.86128 7.76335 9.68796 7.63696 9.55906C7.51058 9.43017 7.33868 9.35597 7.1582 9.35242H6.16104V8.35527C6.16104 8.26473 6.1432 8.17508 6.10855 8.09144C6.07389 8.0078 6.0231 7.9318 5.95907 7.8678C5.89504 7.80379 5.81902 7.75303 5.73537 7.71841C5.65172 7.68378 5.56206 7.66598 5.47152 7.66602Z"></path><path d="M14.6231 7.69141C14.4705 7.69141 14.3213 7.73666 14.1944 7.82145C14.0675 7.90623 13.9686 8.02674 13.9103 8.16773C13.8519 8.30872 13.8366 8.46385 13.8664 8.61352C13.8962 8.76318 13.9697 8.90065 14.0776 9.00854C14.1855 9.11642 14.323 9.18988 14.4727 9.21962C14.6224 9.24935 14.7775 9.23404 14.9185 9.1756C15.0595 9.11717 15.1799 9.01824 15.2647 8.89134C15.3494 8.76443 15.3946 8.61524 15.3946 8.46264C15.3944 8.25812 15.313 8.06203 15.1683 7.91744C15.0237 7.77284 14.8276 7.69155 14.6231 7.69141Z"></path><path d="M14.6231 12.5254C15.0492 12.5254 15.3946 12.18 15.3946 11.7539C15.3946 11.3278 15.0492 10.9824 14.6231 10.9824C14.197 10.9824 13.8516 11.3278 13.8516 11.7539C13.8516 12.18 14.197 12.5254 14.6231 12.5254Z"></path><path d="M13.0977 9.33691C12.9451 9.33691 12.7959 9.38216 12.669 9.46694C12.5422 9.55171 12.4433 9.6722 12.3849 9.81317C12.3265 9.95415 12.3112 10.1093 12.341 10.2589C12.3708 10.4086 12.4442 10.5461 12.5521 10.6539C12.66 10.7618 12.7975 10.8353 12.9472 10.8651C13.0968 10.8949 13.2519 10.8796 13.3929 10.8212C13.5339 10.7628 13.6544 10.6639 13.7392 10.537C13.8239 10.4102 13.8692 10.261 13.8692 10.1084C13.869 9.90386 13.7876 9.70775 13.643 9.56312C13.4983 9.41848 13.3022 9.33713 13.0977 9.33691Z"></path><path d="M16.0762 10.8799C16.2288 10.8799 16.3779 10.8347 16.5048 10.7499C16.6317 10.6651 16.7306 10.5446 16.789 10.4037C16.8474 10.2627 16.8626 10.1076 16.8329 9.9579C16.8031 9.80825 16.7296 9.67078 16.6217 9.56288C16.5138 9.45499 16.3764 9.38151 16.2267 9.35174C16.077 9.32197 15.9219 9.33725 15.7809 9.39564C15.64 9.45403 15.5195 9.55292 15.4347 9.67979C15.3499 9.80666 15.3047 9.95583 15.3047 10.1084C15.3049 10.313 15.3863 10.5091 15.5309 10.6537C15.6755 10.7984 15.8716 10.8797 16.0762 10.8799Z"></path></g><defs><clipPath id="clip0_522_996"><rect width="20" height="13.6523" fill="white" transform="translate(0 4)"></rect></clipPath></defs></svg>
  