<svg width="20" height="20" viewBox="0 0 20 20" fill="none" xmlns="http://www.w3.org/2000/svg" color="#e42575"><path d="M10 17.5C14.1421 17.5 17.5 14.1421 17.5 10C17.5 5.85786 14.1421 2.5 10 2.5C5.85786 2.5 2.5 5.85786 2.5 10C2.5 14.1421 5.85786 17.5 10 17.5Z" stroke="#F5F3F7" strokeMiterlimit="10"></path><path d="M10.4375 10C10.4375 10.2416 10.2416 10.4375 10 10.4375C9.75838 10.4375 9.5625 10.2416 9.5625 10C9.5625 9.75838 9.75838 9.5625 10 9.5625C10.2416 9.5625 10.4375 9.75838 10.4375 10Z" fill="#F5F3F7" stroke="#F5F3F7"></path><path d="M14.1875 10C14.1875 10.2416 13.9916 10.4375 13.75 10.4375C13.5084 10.4375 13.3125 10.2416 13.3125 10C13.3125 9.75838 13.5084 9.5625 13.75 9.5625C13.9916 9.5625 14.1875 9.75838 14.1875 10Z" fill="#F5F3F7" stroke="#F5F3F7"></path><path d="M6.6875 10C6.6875 10.2416 6.49162 10.4375 6.25 10.4375C6.00838 10.4375 5.8125 10.2416 5.8125 10C5.8125 9.75838 6.00838 9.5625 6.25 9.5625C6.49162 9.5625 6.6875 9.75838 6.6875 10Z" fill="#F5F3F7" stroke="#F5F3F7"></path></svg>
  