<svg width="20px" height="20px" viewBox="0 0 20 20" fill="none" xmlns="http://www.w3.org/2000/svg" color="#F5F3F7"><path d="M16.9758 4.48294L15.086 3.68724C14.9865 3.6375 14.887 3.53804 14.887 3.43858L14.4395 1.44931C14.3897 1.15092 13.9919 1.05145 13.8427 1.30011L12.4999 2.8418C12.4005 2.94126 12.301 2.99099 12.2015 2.94126L10.1625 2.6926C9.86414 2.64287 9.66521 2.99099 9.81441 3.23965L10.8588 4.98026C10.9085 5.07972 10.9085 5.22892 10.8588 5.32838L10.0133 7.16846C9.86414 7.41712 10.1128 7.71551 10.4112 7.66577L12.4502 7.21819C12.5497 7.16846 12.6988 7.21819 12.7486 7.31765L14.2903 8.71014C14.4892 8.90907 14.887 8.75987 14.887 8.46148L15.0362 6.47221C15.0362 6.37275 15.1357 6.22355 15.2352 6.17382L17.0255 5.17919C17.2742 4.98026 17.2742 4.58241 16.9758 4.48294Z" fill="#F5F3F7"></path><path d="M16.8796 16.6999L17.9239 16.4512C18.1229 16.4015 18.1726 16.2026 18.0234 16.0534L17.178 15.3571C17.1282 15.3074 17.0785 15.2577 17.0785 15.1582L17.178 14.0641C17.178 13.8652 16.979 13.7657 16.8298 13.8652L15.9347 14.462C15.8849 14.5117 15.7855 14.5117 15.7357 14.462L14.7411 14.0641C14.5919 14.0144 14.393 14.1636 14.4427 14.3128L14.7411 15.4069C14.7411 15.4566 14.7411 15.5561 14.6914 15.6058L13.9951 16.4512C13.8957 16.6004 13.9951 16.7994 14.1443 16.7994L15.2384 16.8491C15.2881 16.8491 15.3876 16.8988 15.4373 16.9486L15.9844 17.8935C16.0838 18.0427 16.3325 18.0427 16.3822 17.8437L16.7801 16.7994C16.7304 16.7496 16.7801 16.6999 16.8796 16.6999Z" fill="#F5F3F7"></path><path d="M4.68652 10.118L4.04001 8.82498C3.94054 8.62605 3.64215 8.62605 3.49295 8.82498L2.89617 10.118C2.84644 10.2175 2.74698 10.2672 2.69725 10.2672L1.25502 10.4661C1.00636 10.5159 0.906897 10.8142 1.10582 10.9634L2.15019 11.9581C2.19993 12.0078 2.24966 12.1073 2.24966 12.2067L2.001 13.649C1.95127 13.8976 2.19993 14.0468 2.44859 13.9473L3.74161 13.2511C3.84108 13.2014 3.94054 13.2014 4.04001 13.2511L5.33303 13.9473C5.53196 14.0468 5.78062 13.8976 5.78062 13.649L5.53196 12.2067C5.53196 12.1073 5.53196 12.0078 5.63142 11.9581L6.67579 10.9634C6.87472 10.8142 6.77526 10.5159 6.5266 10.4661L5.08437 10.2672C4.83571 10.2672 4.73625 10.2175 4.68652 10.118Z" fill="#F5F3F7"></path></svg>