<svg width="16" height="16" viewBox="0 0 20 20" fill="none" xmlns="http://www.w3.org/2000/svg" color="#e42575" size="16"><path d="M10.3016 2.0135C11.1741 2 12.0416 2.008 12.9081 2C12.9606 3.0205 13.3276 4.06 14.0746 4.7815C14.8201 5.521 15.8746 5.8595 16.9006 5.974V8.6585C15.9391 8.627 14.9731 8.427 14.1006 8.013C13.7206 7.841 13.3666 7.6195 13.0201 7.393C13.0156 9.341 13.0281 11.2865 13.0076 13.2265C12.9556 14.1585 12.6481 15.086 12.1061 15.854C11.2341 17.1325 9.72063 17.966 8.16613 17.992C7.21263 18.0465 6.26013 17.7865 5.44763 17.3075C4.10113 16.5135 3.15363 15.06 3.01563 13.5C2.99963 13.1665 2.99413 12.8335 3.00763 12.508C3.12763 11.2395 3.75513 10.026 4.72913 9.2005C5.83313 8.239 7.37963 7.781 8.82763 8.052C8.84113 9.0395 8.80163 10.026 8.80163 11.0135C8.14013 10.7995 7.36713 10.8595 6.78913 11.261C6.36713 11.5345 6.04663 11.9535 5.87963 12.4275C5.74163 12.7655 5.78113 13.141 5.78913 13.5C5.94763 14.594 6.99963 15.5135 8.12263 15.414C8.86713 15.406 9.58063 14.974 9.96863 14.3415C10.0941 14.12 10.2346 13.8935 10.2421 13.633C10.3076 12.4405 10.2816 11.253 10.2896 10.0605C10.2951 7.373 10.2816 4.693 10.3021 2.014L10.3016 2.0135Z" fill="#F5F3F7"></path></svg>